<?xml version="1.0" encoding="UTF-8" standalone="no"?>
<!-- Created with Inkscape (http://www.inkscape.org/) -->

<svg
   xmlns:dc="http://purl.org/dc/elements/1.1/"
   xmlns:cc="http://creativecommons.org/ns#"
   xmlns:rdf="http://www.w3.org/1999/02/22-rdf-syntax-ns#"
   xmlns:svg="http://www.w3.org/2000/svg"
   xmlns="http://www.w3.org/2000/svg"
   xmlns:sodipodi="http://sodipodi.sourceforge.net/DTD/sodipodi-0.dtd"
   xmlns:inkscape="http://www.inkscape.org/namespaces/inkscape"
   width="89.099998mm"
   height="72.799294mm"
   viewBox="0 0 89.099998 72.799294"
   version="1.1"
   id="svg8"
   inkscape:version="0.92.4 5da689c313, 2019-01-14"
   sodipodi:docname="logo.svg"
   inkscape:export-filename="/home/usr/cloud/fh/swt2/projekt/logo.128.png"
   inkscape:export-xdpi="57.220333"
   inkscape:export-ydpi="57.220333">
  <defs
     id="defs2" />
  <sodipodi:namedview
     id="base"
     pagecolor="#ffffff"
     bordercolor="#666666"
     borderopacity="1.0"
     inkscape:pageopacity="0.0"
     inkscape:pageshadow="2"
     inkscape:zoom="2.0000001"
     inkscape:cx="150.99361"
     inkscape:cy="71.123795"
     inkscape:document-units="mm"
     inkscape:current-layer="layer1"
     showgrid="false"
     inkscape:snap-global="false"
     showguides="true"
     inkscape:guide-bbox="true"
     inkscape:window-width="1920"
     inkscape:window-height="1019"
     inkscape:window-x="1920"
     inkscape:window-y="30"
     inkscape:window-maximized="1"
     fit-margin-top="0"
     fit-margin-left="0"
     fit-margin-right="0"
     fit-margin-bottom="0">
    <sodipodi:guide
       position="43.803159,0.87738672"
       orientation="1,0"
       id="guide835"
       inkscape:locked="false" />
    <sodipodi:guide
       position="43.602928,-3.1289933"
       orientation="0,1"
       id="guide991"
       inkscape:locked="false" />
  </sodipodi:namedview>
  <metadata
     id="metadata5">
    <rdf:RDF>
      <cc:Work
         rdf:about="">
        <dc:format>image/svg+xml</dc:format>
        <dc:type
           rdf:resource="http://purl.org/dc/dcmitype/StillImage" />
        <dc:title></dc:title>
      </cc:Work>
    </rdf:RDF>
  </metadata>
  <g
     inkscape:label="Layer 1"
     inkscape:groupmode="layer"
     id="layer1"
     transform="translate(-26.88963,-30.004747)">
    <g
       id="g876"
       style="fill:none;stroke:#d2d2d2;stroke-width:1.10000002;stroke-miterlimit:4;stroke-dasharray:none;stroke-opacity:0.40909091">
      <g
         id="g862"
         transform="matrix(0.81613075,0,0,0.81613075,11.066903,16.20898)"
         style="fill:none;stroke:#d2d2d2;stroke-width:1.34782326;stroke-miterlimit:4;stroke-dasharray:none;stroke-opacity:0.40909091">
        <g
           transform="translate(-1.8426339,-0.89810375)"
           id="g860"
           style="fill:none;stroke:#d2d2d2;stroke-width:1.34782326;stroke-miterlimit:4;stroke-dasharray:none;stroke-opacity:0.40909091" />
      </g>
      <g
         id="g874"
         style="fill:none;stroke:#d2d2d2;stroke-width:0.4668493;stroke-miterlimit:4;stroke-dasharray:none;stroke-opacity:0.40909091"
         transform="matrix(2.3562207,0,0,2.3562207,-36.717729,58.688995)">
        <path
           id="circle872"
           style="opacity:1;fill:none;fill-opacity:1;stroke:#d2d2d2;stroke-width:0.4668493;stroke-linecap:square;stroke-linejoin:miter;stroke-miterlimit:4;stroke-dasharray:none;stroke-dashoffset:0;stroke-opacity:0.40909091;paint-order:stroke fill markers"
           d="m 27.654884,-11.940413 h 36.496029 c 0.23598,0 0.425957,0.189977 0.425957,0.425958 v 25.042757 c 0,0.235981 -0.189977,0.425958 -0.425957,0.425958 H 27.654884 c -0.23598,0 -0.425958,-0.189977 -0.425958,-0.425958 v -25.042757 c 0,-0.235981 0.189978,-0.425958 0.425958,-0.425958 z m 15.899458,25.611862 c 2.554518,-0.02836 1.325183,3.862344 1.325183,4.089203 0,0.226854 -7.217496,0.191467 -7.217496,0.191467 l -0.228878,0.535701 c 5.557102,-0.02432 11.114105,-0.0099 16.671213,0 l -0.228879,-0.535701 c 0,0 -7.217868,0.0354 -7.217868,-0.191467 0,-0.226859 -1.228961,-4.117562 1.325558,-4.089203 -1.476483,0.02983 -2.952307,0.0136 -4.428833,0 z"
           inkscape:connector-curvature="0"
           sodipodi:nodetypes="ssssssssscsccccscc" />
      </g>
    </g>
    <g
       id="g844">
      <path
         sodipodi:nodetypes="csccccscc"
         inkscape:connector-curvature="0"
         id="path999"
         d="m 65.905913,90.901945 c 6.019009,-0.06682 3.122424,9.100535 3.122424,9.635065 0,0.53452 -17.006013,0.45114 -17.006013,0.45114 l -0.539288,1.26223 c 13.093759,-0.0573 26.187284,-0.0233 39.281057,0 l -0.539288,-1.26223 c 0,0 -17.00689,0.0834 -17.00689,-0.45114 0,-0.53453 -2.895704,-9.701883 3.123306,-9.635065 -3.478919,0.07028 -6.956286,0.03205 -10.435308,0 z"
         style="fill:#2c2c2c;fill-opacity:1;stroke:none;stroke-width:0.34493902px;stroke-linecap:butt;stroke-linejoin:miter;stroke-opacity:1" />
      <rect
         ry="1.0036511"
         y="30.554747"
         x="27.439631"
         height="61.013565"
         width="88"
         id="rect815"
         style="opacity:1;fill:#393939;fill-opacity:1;stroke:none;stroke-width:1.97266376;stroke-linecap:round;stroke-linejoin:miter;stroke-miterlimit:4;stroke-dasharray:none;stroke-dashoffset:0;stroke-opacity:1;paint-order:fill markers stroke" />
      <rect
         style="opacity:1;fill:#afb9d2;fill-opacity:1;stroke:none;stroke-width:1.82664621;stroke-linecap:round;stroke-linejoin:miter;stroke-miterlimit:4;stroke-dasharray:none;stroke-dashoffset:0;stroke-opacity:1;paint-order:fill markers stroke"
         id="rect819"
         width="83"
         height="50"
         x="29.939631"
         y="33.054749"
         ry="0.91241014" />
      <g
         transform="matrix(0.81613075,0,0,0.81613075,11.066903,16.20898)"
         id="g854">
        <path
           style="opacity:1;fill:#eaeff3;fill-opacity:1;stroke:none;stroke-width:0.82979864;stroke-linecap:round;stroke-linejoin:miter;stroke-miterlimit:4;stroke-dasharray:none;stroke-dashoffset:0;stroke-opacity:1;paint-order:fill markers stroke"
           d="m 72.135003,84.15756 a 3.0888562,3.0888562 0 0 0 -3.088869,3.088866 3.0888562,3.0888562 0 0 0 3.088869,3.088869 3.0888562,3.0888562 0 0 0 2.572464,-1.382385 l -2.866301,-1.654723 2.914478,-1.682593 A 3.0888562,3.0888562 0 0 0 72.135003,84.15756 Z"
           id="path821"
           inkscape:connector-curvature="0" />
        <g
           id="g847"
           transform="translate(-1.8426339,-0.89810375)">
          <circle
             r="0.4488467"
             cy="88.144531"
             cx="76.280319"
             id="path838"
             style="opacity:1;fill:#eaeff3;fill-opacity:1;stroke:none;stroke-width:1.07700002;stroke-linecap:round;stroke-linejoin:miter;stroke-miterlimit:4;stroke-dasharray:none;stroke-dashoffset:0;stroke-opacity:1;paint-order:fill markers stroke" />
          <circle
             style="opacity:1;fill:#eaeff3;fill-opacity:1;stroke:none;stroke-width:1.07700002;stroke-linecap:round;stroke-linejoin:miter;stroke-miterlimit:4;stroke-dasharray:none;stroke-dashoffset:0;stroke-opacity:1;paint-order:fill markers stroke"
             id="circle840"
             cx="78.288322"
             cy="88.144531"
             r="0.4488467" />
          <circle
             r="0.4488467"
             cy="88.144531"
             cx="80.296318"
             id="circle842"
             style="opacity:1;fill:#eaeff3;fill-opacity:1;stroke:none;stroke-width:1.07700002;stroke-linecap:round;stroke-linejoin:miter;stroke-miterlimit:4;stroke-dasharray:none;stroke-dashoffset:0;stroke-opacity:1;paint-order:fill markers stroke" />
        </g>
      </g>
      <g
         transform="matrix(2.3562207,0,0,2.3562207,-36.717729,58.688995)"
         style="stroke:none;stroke-width:0.05;stroke-miterlimit:4;stroke-dasharray:none;stroke-opacity:1"
         id="g1148">
        <path
           inkscape:connector-curvature="0"
           style="fill:#ebcdc2;fill-opacity:1;stroke:none;stroke-width:0.18897638;stroke-linecap:butt;stroke-linejoin:miter;stroke-miterlimit:4;stroke-dasharray:none;stroke-opacity:1"
           d="m 56.931641,-128.53906 3.916015,30.683591 h 6.958985 4.152343 6.958985 l 3.914062,-30.683591 H 78.777344 60.988281 Z"
           transform="matrix(0.26458333,0,0,0.26458333,27.439631,30.554747)"
           id="path1107" />
        <path
           style="fill:#302222;fill-opacity:1;stroke:none;stroke-width:0.05;stroke-linecap:square;stroke-linejoin:miter;stroke-miterlimit:4;stroke-dasharray:none;stroke-opacity:1;paint-order:stroke fill markers"
           d="m 42.32218,-1.2164404 0.383439,3.007053 h 2.952792 0.541569 2.952791 l 0.383439,-3.007053 h -2.952791 -1.308447 z"
           id="path1112"
           inkscape:connector-curvature="0" />
        <path
           style="fill:#8d93a1;fill-opacity:1;stroke:none;stroke-width:0.05;stroke-linecap:butt;stroke-linejoin:miter;stroke-miterlimit:4;stroke-dasharray:none;stroke-opacity:1"
           d="m 47.493445,-5.2027587 v 0.122473 c -1.428853,0 -4.28656,0 -4.28656,0 l -0.163297,0.6433714 h 5.718514 l -0.163814,-0.6433714 h -0.742591 v -0.122473 z"
           id="path1130"
           inkscape:connector-curvature="0"
           sodipodi:nodetypes="ccccccccc" />
        <path
           inkscape:connector-curvature="0"
           style="fill:#a78a7f;fill-opacity:1;stroke:none;stroke-width:0.18897638;stroke-linecap:butt;stroke-linejoin:miter;stroke-miterlimit:4;stroke-dasharray:none;stroke-opacity:1"
           d="m 56.876953,-132.29688 v 2.29883 h -1.679687 v 1.94532 h 14.496093 0.175782 14.498047 v -1.94532 H 82.6875 v -2.29883 h -12.375 -1.060547 z"
           transform="matrix(0.26458333,0,0,0.26458333,27.439631,30.554747)"
           id="path1125" />
        <circle
           style="opacity:1;fill:#ebcdc2;fill-opacity:1;stroke:none;stroke-width:0.05;stroke-linecap:square;stroke-linejoin:miter;stroke-miterlimit:4;stroke-dasharray:none;stroke-dashoffset:0;stroke-opacity:1;paint-order:stroke fill markers"
           id="path1141"
           cx="45.929195"
           cy="0.28708655"
           r="0.97565103" />
      </g>
    </g>
  </g>
</svg>
