<?xml version="1.0" encoding="UTF-8" standalone="no"?>
<svg
   xmlns:dc="http://purl.org/dc/elements/1.1/"
   xmlns:cc="http://creativecommons.org/ns#"
   xmlns:rdf="http://www.w3.org/1999/02/22-rdf-syntax-ns#"
   xmlns:svg="http://www.w3.org/2000/svg"
   xmlns="http://www.w3.org/2000/svg"
   xmlns:sodipodi="http://sodipodi.sourceforge.net/DTD/sodipodi-0.dtd"
   xmlns:inkscape="http://www.inkscape.org/namespaces/inkscape"
   width="16"
   height="16"
   version="1.1"
   viewBox="0 0 32 32"
   id="svg875"
   sodipodi:docname="gear.svg"
   inkscape:version="0.92.4 5da689c313, 2019-01-14">
  <metadata
     id="metadata881">
    <rdf:RDF>
      <cc:Work
         rdf:about="">
        <dc:format>image/svg+xml</dc:format>
        <dc:type
           rdf:resource="http://purl.org/dc/dcmitype/StillImage" />
      </cc:Work>
    </rdf:RDF>
  </metadata>
  <defs
     id="defs879" />
  <sodipodi:namedview
     pagecolor="#ffffff"
     bordercolor="#666666"
     borderopacity="1"
     objecttolerance="10"
     gridtolerance="10"
     guidetolerance="10"
     inkscape:pageopacity="0"
     inkscape:pageshadow="2"
     inkscape:window-width="1352"
     inkscape:window-height="736"
     id="namedview877"
     showgrid="false"
     inkscape:zoom="33.0625"
     inkscape:cx="8"
     inkscape:cy="8"
     inkscape:window-x="6"
     inkscape:window-y="24"
     inkscape:window-maximized="0"
     inkscape:current-layer="svg875" />
  <g
     transform="matrix(1 0 0 1.1456 0 -2.3279)"
     fill="#d2d2d2"
     id="g873"
     style="fill:#ffffff;fill-opacity:1">
    <path
       d="m32 17.543v-3.2031l-4.4336-1.2812-1.0273-2.1797 2.0078-3.6758-2.582-2.2617-4.1367 1.8203-2.4922-0.90234-1.5742-3.8398h-3.6602l-1.4375 3.8789-2.5391 0.89844-4.2031-1.7539-2.5859 2.2539 2.082 3.625-1.0312 2.1797-4.3867 1.3555v3.1836l4.4336 1.2812 1.0273 2.1797-2.0078 3.6797 2.582 2.2617 4.1367-1.8242 2.4922 0.90234 1.5742 3.8359h3.6367l1.4375-3.8789 2.5391-0.89844 4.207 1.7617 2.582-2.2617-2.1016-3.6211 1.0742-2.1797 4.3867-1.3789zm-16 4.457c-3.793 0-6.8555-2.6797-6.8555-6s3.0625-6 6.8555-6 6.8555 2.6797 6.8555 6-3.0625 6-6.8555 6z"
       fill="#d2d2d2"
       fill-rule="evenodd"
       id="path871"
       style="fill:#ffffff;fill-opacity:1" />
  </g>
</svg>
