<?xml version="1.0" encoding="UTF-8" standalone="no"?>
<!-- Generator: Adobe Illustrator 19.0.0, SVG Export Plug-In . SVG Version: 6.00 Build 0)  -->

<svg
   xmlns:dc="http://purl.org/dc/elements/1.1/"
   xmlns:cc="http://creativecommons.org/ns#"
   xmlns:rdf="http://www.w3.org/1999/02/22-rdf-syntax-ns#"
   xmlns:svg="http://www.w3.org/2000/svg"
   xmlns="http://www.w3.org/2000/svg"
   xmlns:sodipodi="http://sodipodi.sourceforge.net/DTD/sodipodi-0.dtd"
   xmlns:inkscape="http://www.inkscape.org/namespaces/inkscape"
   version="1.1"
   id="Layer_1"
   x="0px"
   y="0px"
   viewBox="0 0 133.89203 133.89201"
   enable-background="new 0 0 196.6 72"
   xml:space="preserve"
   inkscape:version="0.92.4 5da689c313, 2019-01-14"
   sodipodi:docname="nc.svg"
   width="133.89201"
   height="133.89201"
   inkscape:export-filename="nextcloud-logo-white-transparent.png"
   inkscape:export-xdpi="300.09631"
   inkscape:export-ydpi="300.09631"><metadata
     id="metadata20"><rdf:RDF><cc:Work
         rdf:about=""><dc:format>image/svg+xml</dc:format><dc:type
           rdf:resource="http://purl.org/dc/dcmitype/StillImage" /><dc:title></dc:title></cc:Work></rdf:RDF></metadata><defs
     id="defs18" /><sodipodi:namedview
     pagecolor="#ffffff"
     bordercolor="#666666"
     borderopacity="1"
     objecttolerance="10"
     gridtolerance="10"
     guidetolerance="10"
     inkscape:pageopacity="0"
     inkscape:pageshadow="2"
     inkscape:window-width="1920"
     inkscape:window-height="1019"
     id="namedview16"
     showgrid="false"
     inkscape:zoom="2"
     inkscape:cx="-21.752781"
     inkscape:cy="57.564232"
     inkscape:current-layer="Layer_1"
     fit-margin-top="10"
     fit-margin-left="10"
     fit-margin-right="10"
     fit-margin-bottom="10"
     inkscape:window-x="1920"
     inkscape:window-y="30"
     inkscape:window-maximized="1"
     units="px"
     inkscape:snap-bbox="true"
     inkscape:bbox-paths="true"
     inkscape:bbox-nodes="true"
     inkscape:snap-bbox-edge-midpoints="true"
     inkscape:snap-bbox-midpoints="true"
     inkscape:snap-page="true" /><path
     style="color:#000000;font-style:normal;font-variant:normal;font-weight:normal;font-stretch:normal;font-size:medium;line-height:normal;font-family:sans-serif;text-indent:0;text-align:start;text-decoration:none;text-decoration-line:none;text-decoration-style:solid;text-decoration-color:#000000;letter-spacing:normal;word-spacing:normal;text-transform:none;writing-mode:lr-tb;direction:ltr;baseline-shift:baseline;text-anchor:start;white-space:normal;clip-rule:nonzero;display:inline;overflow:visible;visibility:visible;opacity:1;isolation:auto;mix-blend-mode:normal;color-interpolation:sRGB;color-interpolation-filters:linearRGB;solid-color:#000000;solid-opacity:1;fill:#13a6ff;fill-opacity:1;fill-rule:nonzero;stroke:none;stroke-width:6.11880064;stroke-linecap:butt;stroke-linejoin:miter;stroke-miterlimit:10;stroke-dasharray:none;stroke-dashoffset:0;stroke-opacity:1;color-rendering:auto;image-rendering:auto;shape-rendering:auto;text-rendering:auto;enable-background:accumulate"
     d="m 67.041421,38.44627 c -12.97795,0 -23.977841,8.798192 -27.387072,20.718755 -2.962978,-6.322849 -9.383854,-10.75254 -16.77959,-10.75254 -10.17088,0 -18.5316138,8.360734 -18.5316138,18.531615 0,10.170869 8.3607338,18.535414 18.5316138,18.535414 7.395736,0 13.816612,-4.43239 16.77959,-10.75634 3.409231,11.92145 14.409122,20.72257 27.387072,20.72257 12.881977,0 23.82578,-8.66838 27.322199,-20.455376 3.017736,6.180386 9.35914,10.489146 16.64983,10.489146 10.17088,0 18.53542,-8.364545 18.53542,-18.535414 0,-10.170881 -8.36454,-18.531615 -18.53542,-18.531615 -7.29069,0 -13.632094,4.30606 -16.64983,10.485346 C 90.867201,47.11175 79.923398,38.44627 67.041421,38.44627 Z m 0,10.878489 c 9.796885,0 17.623177,7.822488 17.623177,17.619341 0,9.796853 -7.826292,17.623154 -17.623177,17.623154 -9.796831,0 -17.619319,-7.826301 -17.619319,-17.623154 0,-9.796853 7.822488,-17.619341 17.619319,-17.619341 z m -44.166662,9.966228 c 4.292219,0 7.656927,3.360872 7.656927,7.653113 0,4.29223 -3.364708,7.656927 -7.656927,7.656927 -4.292241,0 -7.653123,-3.364697 -7.653123,-7.656927 0,-4.292241 3.360882,-7.653113 7.653123,-7.653113 z m 88.138691,0 c 4.29225,0 7.65692,3.360872 7.65692,7.653113 0,4.29223 -3.36469,7.656927 -7.65692,7.656927 -4.29222,0 -7.65311,-3.364697 -7.65311,-7.656927 0,-4.292241 3.36091,-7.653113 7.65311,-7.653113 z"
     id="XMLID_107_"
     inkscape:connector-curvature="0" /></svg>