<?xml version="1.0" encoding="UTF-8" standalone="no"?>
<!-- Created with Inkscape (http://www.inkscape.org/) -->

<svg
   xmlns:dc="http://purl.org/dc/elements/1.1/"
   xmlns:cc="http://creativecommons.org/ns#"
   xmlns:rdf="http://www.w3.org/1999/02/22-rdf-syntax-ns#"
   xmlns:svg="http://www.w3.org/2000/svg"
   xmlns="http://www.w3.org/2000/svg"
   xmlns:sodipodi="http://sodipodi.sourceforge.net/DTD/sodipodi-0.dtd"
   xmlns:inkscape="http://www.inkscape.org/namespaces/inkscape"
   width="156.58932mm"
   height="156.43874mm"
   viewBox="0 0 156.58932 156.43874"
   version="1.1"
   id="svg8"
   inkscape:version="0.92.4 5da689c313, 2019-01-14"
   sodipodi:docname="office.svg">
  <defs
     id="defs2" />
  <sodipodi:namedview
     id="base"
     pagecolor="#ffffff"
     bordercolor="#666666"
     borderopacity="1.0"
     inkscape:pageopacity="0.0"
     inkscape:pageshadow="2"
     inkscape:zoom="0.98994949"
     inkscape:cx="386.28747"
     inkscape:cy="287.39875"
     inkscape:document-units="mm"
     inkscape:current-layer="layer1"
     showgrid="false"
     fit-margin-top="0"
     fit-margin-left="0"
     fit-margin-right="0"
     fit-margin-bottom="0"
     inkscape:window-width="1920"
     inkscape:window-height="1019"
     inkscape:window-x="1920"
     inkscape:window-y="30"
     inkscape:window-maximized="1" />
  <metadata
     id="metadata5">
    <rdf:RDF>
      <cc:Work
         rdf:about="">
        <dc:format>image/svg+xml</dc:format>
        <dc:type
           rdf:resource="http://purl.org/dc/dcmitype/StillImage" />
        <dc:title></dc:title>
      </cc:Work>
    </rdf:RDF>
  </metadata>
  <g
     inkscape:label="Layer 1"
     inkscape:groupmode="layer"
     id="layer1"
     transform="translate(-19.055752,-67.671838)">
    <path
       style="opacity:1;fill:#ffffff;fill-opacity:0.99545456;stroke:none;stroke-width:4.53543329;stroke-linecap:square;stroke-linejoin:miter;stroke-miterlimit:4;stroke-dasharray:none;stroke-dashoffset:0;stroke-opacity:1;paint-order:stroke fill markers"
       d="m 86.238281,255.76758 -2.886719,1.41406 c -5.221228,2.55981 -9.118654,7.10317 -10.640624,12.40234 -0.697905,2.4299 -0.756444,28.30241 -0.644532,282.91993 l 0.123047,280.24804 1.289063,2.75 c 1.330484,2.83673 4.353077,6.47622 6.863281,8.26367 0.787219,0.56058 2.654318,1.5221 4.148437,2.13672 l 2.716797,1.11719 280.300779,0.0117 c 242.44569,0.0113 280.61254,-0.083 282.61524,-0.68555 5.24674,-1.57901 10.25113,-6.30946 12.45898,-11.77734 l 1.125,-2.78516 0.12305,-278.80273 c 0.0832,-186.9009 -0.038,-279.6794 -0.36719,-281.4668 -1.13798,-6.17615 -5.2394,-11.45926 -11.02344,-14.19922 l -3.26562,-1.54687 H 367.70508 Z m 281.433599,4.11914 c 181.13563,0.002 279.67968,0.16974 280.79101,0.47851 4.76357,1.32337 9.04331,5.81315 10.39453,10.9043 0.7022,2.64569 0.75921,27.92159 0.63086,281.4668 l -0.14062,278.5625 -1.35743,2.76172 c -1.625,3.3092 -5.25153,6.72805 -8.45703,7.97265 -2.22232,0.86287 -11.51233,0.89379 -280.85937,0.96485 -161.19887,0.0427 -279.329119,-0.10835 -280.384768,-0.35743 -4.358222,-1.02935 -8.578577,-4.44128 -10.61914,-8.58398 l -1.121094,-2.27344 v -280.5 -280.49804 l 1.304688,-2.47461 c 1.657882,-3.14242 5.549906,-6.65842 8.472656,-7.6543 2.059914,-0.70188 27.370798,-0.77199 281.345708,-0.76953 z m -138.98633,31.54101 c -4.12848,-0.0425 -8.50357,0.42692 -11.04102,1.32813 -10.46202,3.71571 -18.40685,11.50981 -21.63867,21.23047 -2.13598,6.42462 -2.13598,15.20624 0,21.63086 3.4201,10.287 12.63671,18.83394 23.32617,21.63476 4.38294,1.14837 11.96419,1.25369 16.35938,0.22657 5.73707,-1.34072 10.89133,-4.29661 15.55273,-8.92188 4.64146,-4.60547 6.97954,-8.36501 8.75195,-14.06641 1.6205,-5.21267 1.6205,-14.16622 0,-19.3789 -3.59827,-11.57467 -13.1078,-20.4813 -24.5957,-23.03711 -1.84894,-0.41135 -4.23776,-0.62096 -6.71484,-0.64649 z m -42.65039,76.73243 -4.11719,1.09375 c -12.43071,3.30493 -22.92466,11.97199 -28.5918,23.61328 -4.4154,9.06996 -4.05835,3.58266 -4.22656,64.97851 l -0.14844,54.32227 -4.25976,0.20312 c -3.62049,0.17311 -4.65228,0.42379 -6.89063,1.67383 -3.14871,1.75839 -5.46727,4.8984 -6.22461,8.42969 -0.28943,1.34971 -0.52539,5.16381 -0.52539,8.47656 v 6.02344 l -11.74805,0.13086 -11.74804,0.12891 -0.12305,57.52539 -0.12305,57.52734 37.91016,0.12305 37.91016,0.125 0.24218,19.13476 0.24219,19.13672 1.29883,2.76953 c 1.52915,3.26253 5.08539,7.23101 8.02734,8.95508 3.53414,2.07114 5.77986,2.56392 11.02149,2.42578 4.28562,-0.11263 5.22334,-0.30367 8.12695,-1.66797 5.69271,-2.67443 9.85205,-8.01446 11.00195,-14.12304 0.31843,-1.69161 0.49024,-28.5731 0.49024,-76.42188 0,-73.16716 0.009,-73.82279 0.96875,-74.7832 1.23353,-1.23356 2.6434,-1.23356 3.87695,0 0.96049,0.96049 0.96875,1.61453 0.96875,75.23047 0,65.55318 0.0881,74.60159 0.75195,77.15039 1.50311,5.77232 5.3511,10.40591 10.77735,12.97656 3.06216,1.45066 3.56314,1.53711 8.82812,1.53711 5.31218,0 5.73508,-0.0758 8.76367,-1.56641 3.88429,-1.91225 7.71804,-5.80946 9.53907,-9.69531 l 1.30664,-2.78711 0.32617,-26.16016 c 0.17889,-14.38832 0.47335,-74.33923 0.65625,-133.2246 0.36465,-117.39447 0.11909,-108.75977 3.11914,-108.75977 3.066,0 2.83792,-3.40914 3.17578,47.7168 0.33876,51.25697 0.15278,48.40589 3.42969,52.41015 3.82283,4.67135 11.13186,6.14885 16.76953,3.39063 3.10051,-1.51695 5.3788,-3.86687 6.86914,-7.08789 1.01439,-2.19228 1.02077,-2.49932 1.16602,-54.76758 0.0983,-35.40529 -0.0266,-54.04994 -0.37696,-57.11914 -2.04071,-17.78566 -14.16911,-32.17483 -31.76757,-37.6875 l -4.33594,-1.35742 h -41.17774 z m 379.90625,42.8164 c -2.56709,-0.0241 -5.19291,0.22772 -7.84571,0.78125 -4.7746,0.99625 -11.47109,4.43608 -15.18164,7.79688 -11.76903,10.65978 -14.86775,26.89837 -7.84765,41.13672 7.14432,14.49025 22.8581,21.6768 39.15429,17.9082 1.67407,-0.38714 4.68709,-1.51774 6.69727,-2.51172 12.42523,-6.14377 19.64383,-18.53241 18.96484,-32.54883 -0.90531,-18.68633 -15.97182,-32.39405 -33.9414,-32.5625 z m -385.93164,11.71485 c 0.76418,-0.0206 1.54847,0.1981 2.17773,0.6582 0.9203,0.67291 0.944,1.8927 1.06836,57.16406 l 0.12695,56.47852 h -2.91211 -2.91406 v -7.52539 c 0,-5.61033 -0.18579,-7.96782 -0.73047,-9.27149 -0.55887,-1.33757 -0.61565,-2.16062 -0.24414,-3.49804 0.30856,-1.11073 0.48658,-18.28278 0.48828,-47.08985 0.002,-43.30991 0.0425,-45.37868 0.88867,-46.14453 0.54339,-0.49175 1.28661,-0.75086 2.05079,-0.77148 z m 392.87109,68.2832 c -4.21938,-0.031 -8.63217,0.53807 -11.87891,1.64062 -13.88942,4.71682 -23.43059,16.81649 -24.67968,31.29688 -0.1493,1.73189 -0.10657,6.01505 0.0937,9.51758 l 0.36328,6.36719 8.96289,-11.67383 c 5.31227,-6.92009 9.98027,-12.5021 11.46093,-13.70508 3.12541,-2.53931 7.15987,-4.07955 11.57032,-4.41797 6.49829,-0.4986 11.78921,1.51287 17.22851,6.54883 7.09682,6.57059 9.09301,16.4341 5.05274,24.96679 -1.70982,3.61093 -25.72047,34.23012 -43.46289,55.42579 L 538.94922,607.26562 539.43555,619 c 0.26683,6.45396 0.48575,12.29341 0.48828,12.97656 l 0.008,1.24219 4.48242,-0.62891 c 23.0826,-3.2352 31.73596,-3.57699 40.08985,-1.58593 10.70403,2.55125 19.56491,9.78467 22.66015,18.5 0.79642,2.24239 0.83966,-0.43504 0.97852,-61.25977 0.10507,-46.13216 -0.006,-64.60304 -0.41016,-67.23828 h -0.004 c -2.18434,-14.25812 -13.43921,-26.14514 -27.75391,-29.3125 -2.10009,-0.46467 -4.56212,-0.70017 -7.09375,-0.71875 z m -2.42188,22.52148 c -4.03929,0 -4.97996,0.17115 -7.57226,1.36914 -1.6825,0.77757 -3.9053,2.34528 -5.15039,3.63282 -1.20499,1.24596 -8.79651,10.87565 -16.8711,21.40039 -30.87541,40.24429 -36.21796,46.80223 -38.65625,47.45703 -4.50088,1.20865 -16.07392,3.85361 -41.46679,9.47656 -15.142,3.35297 -28.36648,6.52245 -29.38672,7.04297 -4.21221,2.14889 -7.26207,6.32569 -7.97266,10.91797 -0.72465,4.68344 1.89685,10.62687 5.93164,13.44726 1.95152,1.36411 5.59144,2.63551 7.73828,2.70313 0.57105,0.0189 8.96309,-0.95347 18.65039,-2.16016 42.75799,-5.32599 63.90453,-8.90717 68.49219,-11.5957 3.60798,-2.11446 14.64995,-14.55698 32.90235,-37.07812 16.72252,-20.63354 30.08094,-38.02375 31.27539,-40.71485 0.95285,-2.14696 1.17753,-3.46521 1.1914,-7.00391 0.0151,-3.88958 -0.14495,-4.70376 -1.48437,-7.53515 -1.90073,-4.01745 -5.61538,-7.71996 -9.81836,-9.78906 -2.92018,-1.43762 -3.58036,-1.57032 -7.80274,-1.57032 z m -424.05078,6.07032 3.77735,0.0156 1.25195,2.06641 c 3.26038,5.37951 10.88763,7.43778 17.2793,4.66406 l 2.05859,-0.89258 v 5.78516 5.78711 h -16.22851 -16.23047 v -6.56446 c 0,-9.56511 0.98793,-10.89009 8.09179,-10.86132 z m 469.58399,2.4082 -0.12305,87.80664 -0.12305,87.80664 -59.95117,0.125 -59.95117,0.12305 v 57.40429 57.40625 h 9.44531 9.44336 l 0.12305,-47.83984 0.125,-47.83984 h 50.38281 50.38281 l 0.12305,47.83984 0.125,47.83984 h 6.53711 6.53711 V 667.31055 521.97461 H 622.5293 Z M 310.7832,632.91406 v 6.29883 6.29688 h 27.12891 27.12891 v 83.56835 83.56836 h 9.68945 9.68945 v -83.56836 -83.56835 h 49.65625 49.65625 v -6.29688 -6.29883 h -86.47461 z m 262.8418,0.30469 c -7.74073,0.009 -18.63268,1.28979 -36.36133,3.84961 -42.82341,6.183 -71.77973,13.88468 -79.16992,21.05664 -5.16435,5.0118 -12.91158,25.77784 -24.03125,64.41406 -7.15801,24.87111 -16.32086,59.53917 -16.90234,63.94727 -1.14633,8.69008 5.1656,18.27875 13.90625,21.125 1.31391,0.42788 3.68052,0.61258 6.64257,0.51953 3.87398,-0.12132 5.05414,-0.36054 7.45508,-1.51367 v -0.002 c 3.75716,-1.80449 7.88284,-5.98212 9.83399,-9.95898 0.84895,-1.73034 7.97389,-22.3298 15.83398,-45.77734 15.28422,-45.5946 18.8488,-55.81364 19.80664,-56.77149 1.63461,-1.63464 24.51157,-2.98635 68.42578,-4.04492 12.25667,-0.29556 23.77273,-0.76298 25.58985,-1.03711 9.23811,-1.39381 17.9279,-9.51034 20.41797,-19.07031 0.87284,-3.35101 0.98463,-11.60939 0.20703,-15.33789 -1.53529,-7.36256 -6.88872,-14.00649 -14.19141,-17.61133 -5.13103,-2.53283 -9.72216,-3.79624 -17.46289,-3.78711 z"
       transform="scale(0.26458333)"
       id="rect880"
       inkscape:connector-curvature="0" />
  </g>
</svg>
