<?xml version="1.0" encoding="UTF-8" standalone="no"?>
<!-- Created with Inkscape (http://www.inkscape.org/) -->

<svg
   xmlns:dc="http://purl.org/dc/elements/1.1/"
   xmlns:cc="http://creativecommons.org/ns#"
   xmlns:rdf="http://www.w3.org/1999/02/22-rdf-syntax-ns#"
   xmlns:svg="http://www.w3.org/2000/svg"
   xmlns="http://www.w3.org/2000/svg"
   xmlns:sodipodi="http://sodipodi.sourceforge.net/DTD/sodipodi-0.dtd"
   xmlns:inkscape="http://www.inkscape.org/namespaces/inkscape"
   width="6mm"
   height="5.9997602mm"
   viewBox="0 0 5.9999999 5.9997602"
   version="1.1"
   id="svg8"
   inkscape:version="0.92.4 5da689c313, 2019-01-14"
   sodipodi:docname="t.svg">
  <defs
     id="defs2" />
  <sodipodi:namedview
     id="base"
     pagecolor="#ffffff"
     bordercolor="#666666"
     borderopacity="1.0"
     inkscape:pageopacity="0.0"
     inkscape:pageshadow="2"
     inkscape:zoom="3.959798"
     inkscape:cx="49.932107"
     inkscape:cy="-72.797963"
     inkscape:document-units="mm"
     inkscape:current-layer="layer1"
     showgrid="false"
     fit-margin-top="0"
     fit-margin-left="0"
     fit-margin-right="0"
     fit-margin-bottom="0"
     inkscape:window-width="1920"
     inkscape:window-height="1019"
     inkscape:window-x="1920"
     inkscape:window-y="30"
     inkscape:window-maximized="1" />
  <metadata
     id="metadata5">
    <rdf:RDF>
      <cc:Work
         rdf:about="">
        <dc:format>image/svg+xml</dc:format>
        <dc:type
           rdf:resource="http://purl.org/dc/dcmitype/StillImage" />
        <dc:title></dc:title>
      </cc:Work>
    </rdf:RDF>
  </metadata>
  <g
     inkscape:label="Layer 1"
     inkscape:groupmode="layer"
     id="layer1"
     transform="translate(-98.773502,-130.23117)">
    <path
       style="fill:#ffffff;stroke-width:0.01502117;fill-opacity:1"
       d="m 100.9762,136.21606 c -0.51301,-0.0242 -0.78553,-0.0613 -0.87989,-0.11959 -0.0284,-0.0175 -0.0686,-0.0608 -0.0892,-0.096 -0.04058,-0.0694 -0.01415,0.1522 -0.353201,-2.9601 -0.0414,-0.38004 -0.09204,-0.84181 -0.112518,-1.02618 -0.03886,-0.34964 -0.03742,-0.37611 0.02219,-0.408 0.03988,-0.0214 4.377619,-0.0214 4.417529,0 0.0674,0.036 0.0711,-0.0216 -0.1129,1.63696 -0.0134,0.11984 -0.0846,0.77464 -0.15843,1.4552 -0.1269,1.16984 -0.13628,1.24093 -0.17196,1.30179 -0.0682,0.11643 -0.14542,0.14572 -0.4736,0.17954 -0.47913,0.0495 -1.45373,0.0663 -2.08796,0.0364 z m -0.17895,-0.73899 c 0.0604,-0.0463 0.0605,-0.0437 -0.0466,-1.0631 -0.0567,-0.54068 -0.10742,-1.02363 -0.11241,-1.07319 -0.005,-0.0495 -0.0291,-0.27601 -0.0533,-0.5032 -0.0243,-0.2272 -0.0442,-0.42154 -0.0442,-0.43186 -1e-5,-0.0373 -0.0594,-0.0789 -0.11265,-0.0789 -0.0622,0 -0.11265,0.0432 -0.11265,0.0966 0,0.0344 0.0352,0.37939 0.10595,1.03749 0.0168,0.15696 0.0703,0.6637 0.11862,1.12611 l 0.0881,0.84072 0.0398,0.0342 c 0.0437,0.0376 0.0927,0.0432 0.1296,0.015 z m 2.0797,-0.0151 0.0398,-0.0342 0.15594,-1.47914 c 0.0857,-0.81354 0.15611,-1.49776 0.15632,-1.52048 5.1e-4,-0.0575 -0.0481,-0.10132 -0.11228,-0.10132 -0.0548,0 -0.11265,0.042 -0.11265,0.0814 0,0.0122 -0.0134,0.14192 -0.0294,0.28916 -0.0162,0.14724 -0.0436,0.40289 -0.0608,0.56813 -0.0171,0.16523 -0.0745,0.71234 -0.12723,1.21581 -0.0733,0.69961 -0.092,0.92268 -0.0794,0.94633 0.0396,0.0744 0.1073,0.0881 0.16987,0.0342 z m -1.40966,-0.0207 c 0.0248,-0.038 0.0239,-0.0838 -0.0228,-1.00267 -0.0269,-0.52955 -0.0551,-1.06757 -0.063,-1.19563 -0.008,-0.12806 -0.0217,-0.37479 -0.031,-0.54828 -0.01,-0.1735 -0.0234,-0.3276 -0.0314,-0.34245 -0.0344,-0.0644 -0.14615,-0.065 -0.18815,-6.8e-4 -0.0246,0.0377 -0.0208,0.18466 0.0261,0.98176 0.0223,0.37896 0.10437,1.97108 0.10437,2.02408 0,0.0715 0.0512,0.12393 0.12094,0.12393 0.0469,0 0.0638,-0.008 0.0847,-0.0398 z m 0.69223,0.003 c 0.023,-0.0293 0.031,-0.0716 0.0384,-0.20654 0.0912,-1.63705 0.14671,-2.84346 0.13216,-2.8754 -0.0325,-0.0711 -0.14738,-0.0804 -0.18955,-0.0152 -0.0199,0.0309 -0.0421,0.34567 -0.0821,1.17356 -0.008,0.14871 -0.0319,0.63284 -0.0549,1.07586 -0.0397,0.76508 -0.0406,0.80743 -0.0159,0.84494 0.0358,0.0547 0.12997,0.0563 0.17204,0.003 z m -2.667658,-4.07534 c -0.0258,-0.0222 -0.03453,-0.0622 -0.0555,-0.25399 -0.01873,-0.17142 -0.02072,-0.23547 -0.008,-0.25911 0.01671,-0.0313 0.02112,-0.0314 0.780508,-0.0314 h 0.7637 l 0.008,-0.17649 c 0.008,-0.19291 0.0258,-0.25512 0.0957,-0.32436 0.0954,-0.0945 0.0801,-0.0924 0.69714,-0.0924 0.61712,0 0.60174,-0.003 0.69714,0.0924 0.0699,0.0692 0.0884,0.13145 0.0958,0.32436 l 0.008,0.17649 h 0.76371 c 0.7594,0 0.7638,1.8e-4 0.78051,0.0314 0.0127,0.0237 0.011,0.0877 -0.008,0.25911 -0.021,0.19188 -0.0296,0.23184 -0.0555,0.25399 -0.0289,0.0247 -0.15944,0.0263 -2.28048,0.0263 -2.121036,0 -2.2516,-9.3e-4 -2.280461,-0.0263 z M 102.28,130.69679 c 0.003,-0.0662 6.2e-4,-0.13535 -0.004,-0.15396 l -0.008,-0.0338 h -0.4938 c -0.43643,0 -0.49486,0.003 -0.50293,0.0237 -0.0126,0.0326 -0.011,0.26919 9.3e-4,0.28187 0.005,0.005 0.23375,0.008 0.50697,0.007 l 0.49676,-0.004 z"
       id="path826"
       inkscape:connector-curvature="0" />
  </g>
</svg>
