<?xml version="1.0" encoding="UTF-8" standalone="no"?>
<!-- Created with Inkscape (http://www.inkscape.org/) -->

<svg
   xmlns:dc="http://purl.org/dc/elements/1.1/"
   xmlns:cc="http://creativecommons.org/ns#"
   xmlns:rdf="http://www.w3.org/1999/02/22-rdf-syntax-ns#"
   xmlns:svg="http://www.w3.org/2000/svg"
   xmlns="http://www.w3.org/2000/svg"
   xmlns:sodipodi="http://sodipodi.sourceforge.net/DTD/sodipodi-0.dtd"
   xmlns:inkscape="http://www.inkscape.org/namespaces/inkscape"
   width="100mm"
   height="100mm"
   viewBox="0 0 100 100"
   version="1.1"
   id="svg8"
   inkscape:version="0.92.4 5da689c313, 2019-01-14"
   sodipodi:docname="timer.svg">
  <defs
     id="defs2" />
  <sodipodi:namedview
     id="base"
     pagecolor="#ffffff"
     bordercolor="#666666"
     borderopacity="1.0"
     inkscape:pageopacity="0.0"
     inkscape:pageshadow="2"
     inkscape:zoom="0.7"
     inkscape:cx="167.55137"
     inkscape:cy="162.05824"
     inkscape:document-units="mm"
     inkscape:current-layer="layer1"
     showgrid="false"
     fit-margin-top="0"
     fit-margin-left="0"
     fit-margin-right="0"
     fit-margin-bottom="0"
     inkscape:window-width="1920"
     inkscape:window-height="1049"
     inkscape:window-x="0"
     inkscape:window-y="0"
     inkscape:window-maximized="1" />
  <metadata
     id="metadata5">
    <rdf:RDF>
      <cc:Work
         rdf:about="">
        <dc:format>image/svg+xml</dc:format>
        <dc:type
           rdf:resource="http://purl.org/dc/dcmitype/StillImage" />
        <dc:title></dc:title>
      </cc:Work>
    </rdf:RDF>
  </metadata>
  <g
     inkscape:label="Layer 1"
     inkscape:groupmode="layer"
     id="layer1"
     transform="translate(-35.130996,-110.70761)">
    <path
       style="fill:#ffffff;fill-opacity:1;stroke-width:0.21372962"
       d="M 79.146695,210.39163 C 59.8857,207.79202 44.549572,192.63518 41.854219,173.53511 c -0.451933,-3.20254 -0.452525,-8.75406 -0.0013,-11.94003 2.293129,-16.19005 13.653316,-29.77557 29.23263,-34.95894 3.838212,-1.27701 8.85853,-2.24442 11.647183,-2.24442 h 0.925678 l -0.06511,-1.01522 -0.06519,-1.01522 -1.389242,-0.0566 c -2.788467,-0.11373 -2.992209,-0.51106 -2.992209,-5.83518 0,-4.23711 0.17597,-5.04839 1.195862,-5.51309 0.7281,-0.33174 8.849021,-0.33174 9.57712,0 1.019893,0.4647 1.195871,1.27598 1.195871,5.51309 0,5.32412 -0.20375,5.72145 -2.992209,5.83518 l -1.389249,0.0566 -0.06511,1.01522 -0.06511,1.01522 h 0.925663 c 0.509131,0 1.740674,0.10073 2.736768,0.22387 9.061225,1.12007 17.629565,4.96511 24.171605,10.84696 l 1.06656,0.95893 0.73746,-0.71478 0.73747,-0.71479 -0.73658,-0.75834 c -1.01715,-1.0472 -1.26362,-1.77336 -0.89565,-2.63871 0.16006,-0.37641 1.4023,-1.7664 2.76053,-3.08885 3.37632,-3.2874 3.21004,-3.29258 6.84842,0.21372 2.60591,2.51134 2.71632,2.65308 2.70523,3.47311 -0.014,1.03321 0.0664,0.92949 -3.0258,3.90534 -2.95322,2.84212 -3.24148,2.93393 -4.77464,1.52072 l -0.95358,-0.87897 -0.73605,0.61181 c -0.40484,0.33649 -0.743,0.68586 -0.75149,0.77637 -0.009,0.0905 0.77948,1.14849 1.75104,2.35103 6.39739,7.91838 9.57632,16.90975 9.57632,27.08595 0,7.10597 -1.38469,13.02081 -4.5028,19.23439 -6.44911,12.85135 -19.01693,21.7555 -33.30864,23.59879 -3.217536,0.41499 -8.687865,0.4119 -11.788949,-0.006 z m 8.613629,-8.84555 c 8.2156,-0.68072 15.360506,-3.865 21.215626,-9.45521 5.80567,-5.543 9.38619,-12.56848 10.35979,-20.32732 0.35825,-2.85486 0.15386,-8.37653 -0.40682,-10.99116 -1.48714,-6.93498 -4.7175,-12.70686 -9.90591,-17.69948 -13.331479,-12.82839 -34.421648,-12.82839 -47.78997,0 -5.056584,4.85235 -8.443174,10.90716 -9.89972,17.69948 -0.560683,2.61463 -0.765061,8.1363 -0.406824,10.99116 1.988532,15.847 15.189939,28.43824 31.212409,29.76973 2.912948,0.24209 2.855772,0.24195 5.621419,0.0127 z m -4.232178,-27.54251 c -3.016516,-0.80069 -5.035037,-3.4178 -5.013262,-6.49992 0.02075,-2.93827 1.696124,-5.2554 4.480092,-6.19621 l 0.960632,-0.32464 0.106864,-10.39545 c 0.113139,-11.0061 0.09281,-10.80056 1.06865,-10.80056 0.975843,0 0.955503,-0.20554 1.068651,10.80056 l 0.106864,10.39545 0.960632,0.32464 c 2.063137,0.69722 3.76746,2.4515 4.302173,4.42831 0.34665,1.28155 0.130855,3.68475 -0.428948,4.77695 -0.612044,1.19414 -1.917686,2.44734 -3.15633,3.02957 -1.074806,0.50522 -3.388288,0.74472 -4.456018,0.4613 z"
       id="path826"
       inkscape:connector-curvature="0" />
  </g>
</svg>
